Coordinates
version=1
nRows=18
nColumns=22
inDegrees=yes

Units are S.I. units (second, meters, Newtons, ...)
If the header above contains a line with 'inDegrees', this indicates whether rotational values are in degrees (yes) or radians (no).

endheader
time	pelvis_tilt	pelvis_list	pelvis_rotation	pelvis_tx	pelvis_ty	pelvis_tz	hip_flexion_r	hip_adduction_r	hip_rotation_r	knee_angle_r	ankle_angle_r	subtalar_angle_r	hip_flexion_l	hip_adduction_l	hip_rotation_l	knee_angle_l	ankle_angle_l	subtalar_angle_l	lumbar_extension	lumbar_bending	lumbar_rotation
      1.77000000	     -0.59759879	     -1.85757954	    -27.36520508	     -0.89126773	      0.90707201	     -0.41584064	     14.41405969	     -1.49686881	     -0.12528623	    -36.15069003	     15.64692943	     -0.93678087	      1.96100892	      1.33650135	     -9.46579772	    -17.66633076	     16.77197867	     -4.96961558	    -10.48655396	     -0.00553801	      4.42294627
      1.78000000	     -0.51427355	     -1.97585920	    -27.32795207	     -0.89010589	      0.90730932	     -0.41619328	     14.79879752	     -1.58346099	     -0.50908474	    -36.63353434	     15.74205921	     -1.47310035	      1.72886785	      1.32158524	     -9.43079948	    -17.60034892	     16.77830553	     -4.92771767	    -10.66566052	      0.09995247	      4.23222222
      1.79000000	     -0.42366921	     -2.11386609	    -27.29276794	     -0.88888647	      0.90757601	     -0.41645874	     15.11573066	     -1.65271947	     -0.89261829	    -36.95442596	     15.84565761	     -2.12387775	      1.47754247	      1.28158727	     -9.43176387	    -17.54561463	     16.77008809	     -4.87176880	    -10.85358425	      0.21745894	      4.06594122
      1.80000000	     -0.34253326	     -2.23739486	    -27.21956737	     -0.88752603	      0.90782123	     -0.41671468	     15.39479096	     -1.75603495	     -1.35545224	    -37.12712198	     15.99959894	     -2.53871582	      1.20835295	      1.26429159	     -9.32992903	    -17.43500642	     16.77395247	     -4.81011600	    -11.00517890	      0.33412272	      3.87785657
      1.81000000	     -0.26025136	     -2.37462258	    -27.15173245	     -0.88613225	      0.90807421	     -0.41688851	     15.62878176	     -1.84329307	     -1.82445452	    -37.16295589	     16.15001199	     -3.06276962	      0.93205792	      1.22430010	     -9.26651288	    -17.33858854	     16.77361094	     -4.73469322	    -11.16044813	      0.45991556	      3.71604289
      1.82000000	     -0.19191779	     -2.50401684	    -27.10674417	     -0.88473538	      0.90829695	     -0.41696209	     15.85565786	     -1.91936158	     -2.27861597	    -37.07996328	     16.29254177	     -3.65060694	      0.67200827	      1.17538411	     -9.25989454	    -17.25140453	     16.77066938	     -4.64886890	    -11.29617104	      0.57550368	      3.60973158
      1.83000000	     -0.15183271	     -2.60985420	    -27.03847762	     -0.88328487	      0.90844362	     -0.41701726	     16.09786272	     -2.01514614	     -2.78176060	    -36.90040582	     16.44756508	     -3.89315077	      0.45258145	      1.13513773	     -9.20934680	    -17.16995336	     16.79306736	     -4.59857553	    -11.38292305	      0.68704362	      3.46261972
      1.84000000	     -0.12059632	     -2.72301764	    -26.97786191	     -0.88177478	      0.90860571	     -0.41699000	     16.29159759	     -2.08737933	     -3.28258120	    -36.56293970	     16.56067070	     -4.24562425	      0.22278425	      1.08286695	     -9.16127509	    -17.07281159	     16.80455934	     -4.53262474	    -11.45693395	      0.80895697	      3.36822722
      1.85000000	     -0.10179300	     -2.83119649	    -26.94661511	     -0.88028452	      0.90872594	     -0.41683469	     16.49662438	     -2.13270424	     -3.74028926	    -36.15783601	     16.66285145	     -4.58679575	      0.00498346	      1.02158093	     -9.13718305	    -16.98274229	     16.82560759	     -4.46806841	    -11.51517388	      0.91727426	      3.30737924
      1.86000000	     -0.09695078	     -2.92480970	    -26.92694398	     -0.87877165	      0.90880384	     -0.41660716	     16.70169178	     -2.16712075	     -4.16845099	    -35.66086829	     16.73820016	     -4.84961943	     -0.19208565	      0.96465995	     -9.12839568	    -16.90165784	     16.84951228	     -4.41471451	    -11.54892597	      1.01869406	      3.27517151
      1.87000000	     -0.09414232	     -3.01395062	    -26.91141479	     -0.87722834	      0.90886346	     -0.41630042	     16.88727040	     -2.18280172	     -4.56481758	    -35.07442260	     16.78305500	     -5.07797867	     -0.39195300	      0.90847272	     -9.12086777	    -16.81778969	     16.88769160	     -4.35856971	    -11.57663800	      1.11397634	      3.24286097
      1.88000000	     -0.09803779	     -3.09338056	    -26.90678345	     -0.87569108	      0.90888628	     -0.41587918	     17.06961473	     -2.17738204	     -4.92081319	    -34.41832798	     16.81085209	     -5.21555952	     -0.57486445	      0.85056693	     -9.11835837	    -16.75407819	     16.92213096	     -4.31170589	    -11.59289622	      1.18942495	      3.24068762
      1.89000000	     -0.08641061	     -3.17656757	    -26.89642044	     -0.87411112	      0.90891183	     -0.41539876	     17.21238440	     -2.15833149	     -5.25418985	    -33.68778722	     16.79937209	     -5.32020588	     -0.78262782	      0.79404624	     -9.11571256	    -16.68432775	     16.97899356	     -4.24370619	    -11.62640976	      1.26350193	      3.22749083
      1.90000000	     -0.10091768	     -3.24857156	    -26.89649915	     -0.87255976	      0.90886843	     -0.41481950	     17.37397885	     -2.10141384	     -5.51450926	    -32.89665198	     16.77655457	     -5.32414397	     -0.94987323	      0.72919807	     -9.10130268	    -16.63943553	     17.01593413	     -4.20050188	    -11.62979112	      1.32788979	      3.24757427
      1.91000000	     -0.10431733	     -3.32651531	    -26.89117134	     -0.87097032	      0.90881520	     -0.41417097	     17.50140132	     -2.02650676	     -5.74861394	    -32.04568685	     16.71147664	     -5.27501394	     -1.13831480	      0.65990600	     -9.08800201	    -16.59069660	     17.08019690	     -4.14270815	    -11.64756241	      1.39103090	      3.25986873
      1.92000000	     -0.08828185	     -3.40777635	    -26.88148064	     -0.86933505	      0.90875750	     -0.41345088	     17.59124440	     -1.94223904	     -5.96183751	    -31.14761159	     16.60929712	     -5.13933031	     -1.35545105	      0.59016887	     -9.10320179	    -16.53620936	     17.16522505	     -4.05497956	    -11.68524360	      1.44883929	      3.25376916
      1.93000000	     -0.08484867	     -3.47943371	    -26.87936125	     -0.86769679	      0.90864031	     -0.41266550	     17.68713389	     -1.83521943	     -6.10789410	    -30.21104482	     16.48913170	     -4.94225801	     -1.54817274	      0.52102432	     -9.10811764	    -16.50308383	     17.24880046	     -3.96578793	    -11.70889821	      1.49937365	      3.27072049
      1.94000000	     -0.10058392	     -3.53680919	    -26.88023025	     -0.86608530	      0.90845171	     -0.41179946	     17.79928634	     -1.70645497	     -6.19087398	    -29.24010422	     16.34986332	     -4.76319989	     -1.69933208	      0.44962527	     -9.09687644	    -16.50428588	     17.33210210	     -3.89779177	    -11.71061905	      1.53327842	      3.31543317
